<svg width="13" height="20" viewBox="0 0 13 20" fill="none" xmlns="http://www.w3.org/2000/svg">
<path d="M12.0229 1.03384C12.0229 0.893914 11.9655 0.759716 11.8632 0.660771C11.7609 0.561826 11.6222 0.506239 11.4775 0.506239H8.75022C7.3769 0.440068 6.03233 0.902356 5.01028 1.7921C3.98824 2.68184 3.37181 3.92669 3.29568 5.25468V8.10374H0.568404C0.42374 8.10374 0.285002 8.15933 0.182709 8.25828C0.0804167 8.35722 0.0229492 8.49142 0.0229492 8.63135V11.3749C0.0229492 11.5148 0.0804167 11.649 0.182709 11.748C0.285002 11.8469 0.42374 11.9025 0.568404 11.9025H3.29568V18.9724C3.29568 19.1123 3.35314 19.2465 3.45544 19.3455C3.55773 19.4444 3.69647 19.5 3.84113 19.5H7.11386C7.25852 19.5 7.39726 19.4444 7.49955 19.3455C7.60185 19.2465 7.65931 19.1123 7.65931 18.9724V11.9025H10.5175C10.6388 11.9042 10.7572 11.8667 10.854 11.796C10.9508 11.7253 11.0205 11.6254 11.052 11.5121L11.8375 8.76853C11.8592 8.69057 11.8621 8.60883 11.846 8.52962C11.8299 8.4504 11.7953 8.37581 11.7447 8.31159C11.6941 8.24737 11.6289 8.19524 11.5543 8.1592C11.4796 8.12317 11.3973 8.1042 11.3139 8.10374H7.65931V5.25468C7.68645 4.99349 7.81326 4.75146 8.01498 4.57586C8.21669 4.40025 8.47884 4.30368 8.75022 4.30499H11.4775C11.6222 4.30499 11.7609 4.2494 11.8632 4.15046C11.9655 4.05151 12.0229 3.91732 12.0229 3.77739V1.03384Z" fill="white"/>
</svg>
