<svg width="25" height="24" viewBox="0 0 25 24" fill="none" xmlns="http://www.w3.org/2000/svg">
<path fill-rule="evenodd" clip-rule="evenodd" d="M12.6109 0C5.76945 0 0.221741 5.32865 0.221741 11.9021C0.221741 17.1608 3.77161 21.6222 8.69425 23.196C9.31339 23.3061 9.54076 22.9378 9.54076 22.6234C9.54076 22.3396 9.5292 21.402 9.52395 20.4075C6.07717 21.1275 5.34988 19.0032 5.34988 19.0032C4.78632 17.6274 3.9743 17.2617 3.9743 17.2617C2.85028 16.523 4.05903 16.5381 4.05903 16.5381C5.30315 16.6221 5.95824 17.7647 5.95824 17.7647C7.06321 19.5843 8.85651 19.0582 9.5635 18.7541C9.67465 17.9848 9.99579 17.4598 10.3501 17.1626C7.59831 16.8615 4.70548 15.841 4.70548 11.2805C4.70548 9.98111 5.18946 8.9193 5.98205 8.08581C5.8534 7.78598 5.42936 6.57547 6.10205 4.93604C6.10205 4.93604 7.1424 4.61614 9.50996 6.15607C10.4981 5.89228 11.558 5.7601 12.6109 5.75562C13.6638 5.7601 14.7245 5.89228 15.7146 6.15607C18.0793 4.61614 19.1182 4.93604 19.1182 4.93604C19.7926 6.57547 19.3683 7.78598 19.2397 8.08581C20.034 8.9193 20.5147 9.98101 20.5147 11.2805C20.5147 15.8518 17.6164 16.8585 14.8577 17.1531C15.302 17.5224 15.698 18.2468 15.698 19.3571C15.698 20.9496 15.6836 22.2314 15.6836 22.6234C15.6836 22.9401 15.9066 23.3113 16.5347 23.1944C21.4546 21.6188 25 17.159 25 11.9021C25 5.32865 19.4531 0 12.6109 0Z" fill="white"/>
<path d="M4.86789 16.9515C4.84088 17.0108 4.74461 17.0286 4.65711 16.9879C4.56788 16.9489 4.51772 16.868 4.54666 16.8085C4.57319 16.7474 4.66946 16.7304 4.7585 16.7714C4.84792 16.8103 4.89886 16.8919 4.86789 16.9515ZM5.47293 17.4755C5.41428 17.5284 5.29958 17.5038 5.22173 17.4204C5.14128 17.3371 5.12623 17.2259 5.18575 17.1722C5.24624 17.1195 5.35746 17.1441 5.43811 17.2275C5.51856 17.3117 5.53429 17.4222 5.47293 17.4755ZM5.88803 18.1461C5.81259 18.1969 5.68931 18.1493 5.6132 18.0431C5.53785 17.937 5.53786 17.8096 5.61484 17.7586C5.69124 17.7075 5.81259 17.7534 5.88977 17.8588C5.96501 17.9667 5.96511 18.094 5.88803 18.1461ZM6.58992 18.9227C6.52249 18.9948 6.37895 18.9755 6.2738 18.877C6.16634 18.7807 6.13634 18.6441 6.20396 18.5719C6.27216 18.4996 6.41657 18.5199 6.52249 18.6176C6.62928 18.7137 6.66179 18.8514 6.58992 18.9227ZM7.4971 19.1849C7.46748 19.2784 7.32915 19.3209 7.18985 19.2812C7.05075 19.2403 6.95968 19.1307 6.98775 19.0362C7.01669 18.9421 7.15561 18.8978 7.29597 18.9403C7.43488 18.9811 7.52604 19.0898 7.4971 19.1849ZM8.52968 19.2961C8.53315 19.3946 8.41498 19.4763 8.26874 19.4781C8.12163 19.4812 8.00268 19.4015 8.00114 19.3046C8.00114 19.2052 8.11661 19.1243 8.26363 19.1219C8.40987 19.1191 8.52968 19.1982 8.52968 19.2961ZM9.54394 19.2584C9.56149 19.3544 9.45982 19.4531 9.31463 19.4794C9.17186 19.5047 9.0397 19.4454 9.02147 19.3501C9.00372 19.2516 9.10733 19.153 9.24981 19.1274C9.39528 19.1029 9.52541 19.1607 9.54394 19.2584Z" fill="white"/>
</svg>
