<svg width="22" height="20" viewBox="0 0 22 20" fill="none" xmlns="http://www.w3.org/2000/svg">
<path fill-rule="evenodd" clip-rule="evenodd" d="M6.86776 0.0828115C7.93688 0.0340328 8.27766 0.0229492 11 0.0229492C13.7229 0.0229492 14.0631 0.0345861 15.1317 0.0828115C16.1991 0.131037 16.928 0.300093 17.5656 0.546744C18.2343 0.797358 18.8401 1.19003 19.3407 1.69743C19.8505 2.19577 20.2451 2.7988 20.4968 3.46448C20.7445 4.09913 20.9138 4.82468 20.9628 5.88668C21.0118 6.9509 21.023 7.29012 21.023 9.99999C21.023 12.7098 21.0113 13.0491 20.9628 14.1133C20.9144 15.1753 20.7445 15.9009 20.4968 16.5355C20.2406 17.1913 19.8976 17.7483 19.3407 18.3025C18.8401 18.81 18.2343 19.2027 17.5656 19.4532C16.928 19.6999 16.1991 19.8684 15.1323 19.9172C14.0631 19.966 13.7223 19.977 11 19.977C8.27766 19.977 7.93688 19.9654 6.86776 19.9172C5.80088 19.8689 5.07198 19.6999 4.43441 19.4532C3.77568 19.1983 3.21607 18.8568 2.65924 18.3025C2.14941 17.8042 1.75491 17.2012 1.50326 16.5355C1.25547 15.9009 1.08619 15.1753 1.03719 14.1133C0.988185 13.0491 0.977051 12.7104 0.977051 9.99999C0.977051 7.28957 0.988741 6.9509 1.03719 5.88724C1.08564 4.82468 1.25547 4.09913 1.50326 3.46448C1.75502 2.79884 2.1495 2.19584 2.65924 1.69743C3.15986 1.18994 3.76567 0.79724 4.43441 0.546744C5.07198 0.300093 5.80088 0.13159 6.86776 0.0828115ZM15.0504 1.87868C13.9935 1.83101 13.6761 1.82048 11 1.82048C8.32388 1.82048 8.00649 1.83101 6.94962 1.87868C5.97238 1.92302 5.44172 2.08542 5.08869 2.22233C4.62095 2.40303 4.28685 2.61919 3.93605 2.96839C3.58581 3.31759 3.36808 3.65016 3.18656 4.11575C3.04901 4.46717 2.88587 4.9954 2.84132 5.96816C2.79343 7.02019 2.78285 7.33612 2.78285 9.99999C2.78285 12.6639 2.79343 12.9798 2.84132 14.0318C2.88587 15.0046 3.04901 15.5328 3.18656 15.8843C3.34712 16.3176 3.60324 16.7096 3.93605 17.0316C4.25942 17.3629 4.6533 17.6178 5.08869 17.7776C5.44172 17.9146 5.97238 18.077 6.94962 18.1213C8.00649 18.169 8.32332 18.1795 11 18.1795C13.6767 18.1795 13.9935 18.169 15.0504 18.1213C16.0276 18.077 16.5583 17.9146 16.9114 17.7776C17.3791 17.597 17.7132 17.3808 18.064 17.0316C18.3968 16.7097 18.6529 16.3176 18.8134 15.8843C18.951 15.5328 19.1141 15.0046 19.1587 14.0318C19.2066 12.9798 19.2172 12.6639 19.2172 9.99999C19.2172 7.33612 19.2066 7.02019 19.1587 5.96816C19.1141 4.9954 18.951 4.46717 18.8134 4.11575C18.6319 3.65016 18.4148 3.31759 18.064 2.96839C17.7132 2.61976 17.3791 2.40303 16.9114 2.22233C16.5583 2.08542 16.0276 1.92302 15.0504 1.87868ZM9.72026 13.0756C10.126 13.2429 10.5608 13.329 11 13.329C11.887 13.329 12.7376 12.9782 13.3648 12.3539C13.992 11.7296 14.3444 10.8829 14.3444 9.99999C14.3444 9.11712 13.992 8.27034 13.3648 7.64603C12.7376 7.02172 11.887 6.67098 11 6.67098C10.5608 6.67098 10.126 6.75709 9.72026 6.92439C9.31442 7.09168 8.94578 7.33689 8.63524 7.64603C8.32469 7.95515 8.07834 8.32213 7.91028 8.72602C7.74221 9.1299 7.65571 9.56282 7.65571 9.99999C7.65571 10.4372 7.74221 10.8701 7.91028 11.274C8.07834 11.6779 8.32469 12.0448 8.63524 12.3539C8.94578 12.663 9.31442 12.9083 9.72026 13.0756ZM7.35716 6.3738C8.32331 5.41208 9.6337 4.87178 11 4.87178C12.3664 4.87178 13.6768 5.41208 14.6429 6.3738C15.609 7.33552 16.1518 8.63994 16.1518 9.99999C16.1518 11.36 15.609 12.6644 14.6429 13.6262C13.6768 14.5879 12.3664 15.1282 11 15.1282C9.6337 15.1282 8.32331 14.5879 7.35716 13.6262C6.39101 12.6644 5.84824 11.36 5.84824 9.99999C5.84824 8.63994 6.39101 7.33552 7.35716 6.3738ZM17.2941 5.63583C17.5225 5.40849 17.6508 5.10017 17.6508 4.77867C17.6508 4.45716 17.5225 4.14884 17.2941 3.92151C17.0657 3.69417 16.756 3.56646 16.433 3.56646C16.1101 3.56646 15.8003 3.69417 15.5719 3.92151C15.3435 4.14884 15.2152 4.45716 15.2152 4.77867C15.2152 5.10017 15.3435 5.40849 15.5719 5.63583C15.8003 5.86317 16.1101 5.99088 16.433 5.99088C16.756 5.99088 17.0657 5.86317 17.2941 5.63583Z" fill="white"/>
</svg>
