<svg width="22" height="18" viewBox="0 0 22 18" fill="none" xmlns="http://www.w3.org/2000/svg">
<path d="M20.9829 2.14464C20.2105 2.50173 19.3836 2.7474 18.5121 2.85882C19.4014 2.29619 20.0812 1.40623 20.4054 0.346021C19.5713 0.858131 18.6486 1.22907 17.6675 1.43875C16.8853 0.555709 15.767 0 14.5261 0C12.1472 0 10.2191 2.03253 10.2191 4.53772C10.2191 4.89827 10.2604 5.24429 10.332 5.57232C6.75345 5.39585 3.58114 3.5827 1.45948 0.843598C1.08673 1.51073 0.874762 2.28581 0.874762 3.12941C0.874762 4.70796 1.63667 6.09204 2.78839 6.90588C2.08423 6.88443 1.42142 6.67889 0.840637 6.34048V6.39515C0.840637 8.59654 2.32376 10.4318 4.29251 10.8498C3.93354 10.9502 3.55029 11.0083 3.16114 11.0083C2.88486 11.0083 2.62104 10.9799 2.35789 10.9287C2.91176 12.7308 4.49726 14.0429 6.38726 14.0824C4.91792 15.2969 3.05548 16.0208 1.04867 16.0208C0.706762 16.0208 0.365512 16.0035 0.0229492 15.9599C1.93723 17.2471 4.1967 18 6.63729 18C14.5563 18 18.8836 11.083 18.8836 5.09273C18.8836 4.90173 18.8836 4.70727 18.8698 4.51211C19.7144 3.87751 20.4454 3.07336 21.0229 2.16194L20.9829 2.14464Z" fill="white"/>
</svg>
