<svg width="24" height="24" viewBox="0 0 24 24" fill="none" xmlns="http://www.w3.org/2000/svg">
<path d="M17.7441 14.2835C17.4558 14.1376 16.0521 13.4526 15.7898 13.3548C15.5274 13.2614 15.337 13.2125 15.1458 13.5007C14.9589 13.7818 14.4083 14.4251 14.2401 14.6127C14.072 14.8003 13.9066 14.8146 13.6227 14.6874C13.3345 14.5415 12.4138 14.2418 11.3206 13.2614C10.4667 12.5017 9.89818 11.5659 9.72927 11.2777C9.56108 10.993 9.71058 10.832 9.85289 10.6897C9.98371 10.5589 10.1411 10.3605 10.287 10.188C10.4257 10.0155 10.4703 9.89981 10.5716 9.71294C10.6651 9.51097 10.6169 9.35356 10.5458 9.21125C10.4746 9.06894 9.90177 7.65803 9.66243 7.09597C9.43386 6.53822 9.19452 6.60938 9.01843 6.60938C8.85383 6.59428 8.66264 6.59428 8.47218 6.59428C8.28171 6.59428 7.97049 6.66544 7.70814 6.93856C7.4458 7.22678 6.70477 7.91534 6.70477 9.30828C6.70477 10.7048 7.73043 12.0561 7.87274 12.258C8.01864 12.4449 9.89027 15.3199 12.7617 16.5554C13.4466 16.8437 13.9785 17.0162 14.394 17.1585C15.0789 17.3755 15.7042 17.3453 16.198 17.2742C16.7443 17.1843 17.89 16.5813 18.13 15.9078C18.3737 15.2301 18.3737 14.6687 18.3025 14.5415C18.2314 14.4107 18.0445 14.3395 17.7563 14.2123L17.7441 14.2835ZM12.5367 21.3438H12.5216C10.8218 21.3438 9.14133 20.883 7.67365 20.022L7.32936 19.8164L3.73561 20.7522L4.70161 17.2555L4.46946 16.8961C3.52214 15.3875 3.01686 13.6467 3.01686 11.8577C3.01686 6.63956 7.28839 2.38312 12.5439 2.38312C15.0897 2.38312 17.4781 3.375 19.275 5.17188C21.0719 6.95366 22.0637 9.34206 22.0637 11.8728C22.0566 17.0873 17.7886 21.3438 12.5403 21.3438H12.5367ZM20.6413 3.80553C18.4549 1.69384 15.5799 0.5 12.5216 0.5C6.21386 0.5 1.07768 5.61391 1.07408 11.8987C1.07408 13.9054 1.59805 15.8633 2.60143 17.5962L0.977051 23.5L7.04905 21.9166C8.7223 22.8186 10.6054 23.3016 12.5223 23.3052H12.5259C18.8373 23.3052 23.9735 18.1913 23.9771 11.9023C23.9771 8.85906 22.7904 5.99484 20.627 3.84219L20.6413 3.80553Z" fill="white"/>
</svg>
